<svg width="76" height="81" viewBox="0 0 76 81" fill="none" xmlns="http://www.w3.org/2000/svg">
<rect width="76" height="81" fill="#08A72B"/>
<path d="M49.1833 33.0164C49.0284 32.8602 48.844 32.7362 48.6409 32.6516C48.4378 32.567 48.22 32.5234 48 32.5234C47.7799 32.5234 47.5621 32.567 47.359 32.6516C47.1559 32.7362 46.9716 32.8602 46.8166 33.0164L34.4 45.4498L29.1833 40.2164C29.0224 40.061 28.8325 39.9388 28.6244 39.8568C28.4163 39.7748 28.1941 39.7346 27.9705 39.7385C27.7469 39.7424 27.5262 39.7902 27.321 39.8794C27.1159 39.9685 26.9304 40.0972 26.775 40.2581C26.6196 40.419 26.4974 40.6089 26.4154 40.817C26.3334 41.0251 26.2931 41.2473 26.297 41.4709C26.3009 41.6945 26.3488 41.9152 26.4379 42.1203C26.5271 42.3255 26.6558 42.511 26.8166 42.6664L33.2166 49.0664C33.3716 49.2226 33.5559 49.3466 33.759 49.4313C33.9621 49.5159 34.1799 49.5594 34.4 49.5594C34.62 49.5594 34.8378 49.5159 35.0409 49.4313C35.244 49.3466 35.4284 49.2226 35.5833 49.0664L49.1833 35.4664C49.3525 35.3104 49.4875 35.1209 49.5798 34.9101C49.6722 34.6993 49.7198 34.4716 49.7198 34.2414C49.7198 34.0113 49.6722 33.7836 49.5798 33.5728C49.4875 33.3619 49.3525 33.1725 49.1833 33.0164V33.0164Z" fill="white"/>
</svg>
