<svg width="76" height="81" viewBox="0 0 76 81" fill="none" xmlns="http://www.w3.org/2000/svg">
<rect width="76" height="81" fill="#F44336"/>
<path d="M37.9997 32.6673C37.5577 32.6673 37.1337 32.8429 36.8212 33.1555C36.5086 33.468 36.333 33.892 36.333 34.334V41.0007C36.333 41.4427 36.5086 41.8666 36.8212 42.1792C37.1337 42.4917 37.5577 42.6673 37.9997 42.6673C38.4417 42.6673 38.8656 42.4917 39.1782 42.1792C39.4908 41.8666 39.6663 41.4427 39.6663 41.0007V34.334C39.6663 33.892 39.4908 33.468 39.1782 33.1555C38.8656 32.8429 38.4417 32.6673 37.9997 32.6673ZM39.533 47.034C39.4965 46.9278 39.4461 46.8269 39.383 46.734L39.183 46.484C38.9486 46.2527 38.651 46.0961 38.3277 46.0338C38.0044 45.9715 37.6699 46.0064 37.3663 46.134C37.1644 46.2184 36.9784 46.3368 36.8163 46.484C36.6619 46.6397 36.5397 46.8244 36.4567 47.0275C36.3738 47.2305 36.3317 47.448 36.333 47.6673C36.3356 47.8851 36.3809 48.1003 36.4663 48.3007C36.5412 48.5075 36.6606 48.6953 36.8162 48.8508C36.9717 49.0064 37.1595 49.1258 37.3663 49.2007C37.5658 49.2888 37.7816 49.3344 37.9997 49.3344C38.2178 49.3344 38.4335 49.2888 38.633 49.2007C38.8398 49.1258 39.0277 49.0064 39.1832 48.8508C39.3387 48.6953 39.4582 48.5075 39.533 48.3007C39.6184 48.1003 39.6637 47.8851 39.6663 47.6673C39.6745 47.5564 39.6745 47.4449 39.6663 47.334C39.6377 47.2277 39.5927 47.1265 39.533 47.034V47.034ZM37.9997 24.334C34.7033 24.334 31.481 25.3115 28.7402 27.1428C25.9994 28.9742 23.8632 31.5772 22.6017 34.6226C21.3402 37.668 21.0102 41.0191 21.6533 44.2522C22.2963 47.4852 23.8837 50.4549 26.2146 52.7858C28.5454 55.1166 31.5152 56.704 34.7482 57.3471C37.9812 57.9902 41.3323 57.6601 44.3777 56.3986C47.4232 55.1372 50.0261 53.001 51.8575 50.2602C53.6889 47.5193 54.6663 44.297 54.6663 41.0007C54.6663 38.812 54.2353 36.6447 53.3977 34.6226C52.5601 32.6005 51.3324 30.7632 49.7848 29.2155C48.2372 27.6679 46.3998 26.4402 44.3777 25.6027C42.3556 24.7651 40.1884 24.334 37.9997 24.334V24.334ZM37.9997 54.334C35.3626 54.334 32.7847 53.552 30.5921 52.0869C28.3994 50.6218 26.6905 48.5394 25.6813 46.1031C24.6721 43.6667 24.4081 40.9859 24.9225 38.3994C25.437 35.813 26.7069 33.4373 28.5716 31.5726C30.4363 29.7079 32.8121 28.438 35.3985 27.9235C37.9849 27.409 40.6658 27.6731 43.1021 28.6823C45.5385 29.6914 47.6209 31.4004 49.0859 33.593C50.551 35.7857 51.333 38.3636 51.333 41.0007C51.333 44.5369 49.9283 47.9283 47.4278 50.4287C44.9273 52.9292 41.5359 54.334 37.9997 54.334V54.334Z" fill="white"/>
</svg>
